<svg width="136" height="136" viewBox="0 0 136 136" fill="none" xmlns="http://www.w3.org/2000/svg">
<path d="M68 12.75C57.0726 12.75 46.3906 15.9904 37.3048 22.0613C28.219 28.1323 21.1374 36.7611 16.9557 46.8567C12.7739 56.9524 11.6798 68.0613 13.8116 78.7787C15.9435 89.4962 21.2055 99.3408 28.9324 107.068C36.6592 114.794 46.5038 120.057 57.2213 122.188C67.9387 124.32 79.0477 123.226 89.1433 119.044C99.2389 114.863 107.868 107.781 113.939 98.6952C120.01 89.6094 123.25 78.9274 123.25 68C123.235 53.3515 117.409 39.3075 107.051 28.9494C96.6925 18.5914 82.6485 12.7655 68 12.75ZM92.2569 58.2569L62.5069 88.0069C62.1122 88.402 61.6435 88.7155 61.1275 88.9294C60.6116 89.1433 60.0585 89.2533 59.5 89.2533C58.9415 89.2533 58.3885 89.1433 57.8725 88.9294C57.3566 88.7155 56.8879 88.402 56.4931 88.0069L43.7431 75.2569C42.9457 74.4594 42.4977 73.3778 42.4977 72.25C42.4977 71.1222 42.9457 70.0406 43.7431 69.2431C44.5406 68.4456 45.6222 67.9976 46.75 67.9976C47.8778 67.9976 48.9594 68.4456 49.7569 69.2431L59.5 78.9916L86.2431 52.2431C86.638 51.8483 87.1068 51.535 87.6227 51.3213C88.1386 51.1076 88.6916 50.9976 89.25 50.9976C89.8084 50.9976 90.3614 51.1076 90.8773 51.3213C91.3932 51.535 91.862 51.8483 92.2569 52.2431C92.6518 52.638 92.965 53.1068 93.1787 53.6227C93.3924 54.1386 93.5024 54.6916 93.5024 55.25C93.5024 55.8084 93.3924 56.3614 93.1787 56.8773C92.965 57.3932 92.6518 57.862 92.2569 58.2569Z" fill="#C7A77B"/>
</svg>
