<svg width="324" height="126" viewBox="0 0 324 126" fill="none" xmlns="http://www.w3.org/2000/svg">
<path d="M53.6772 44.4172C53.256 42.9886 51.2322 42.9917 50.8171 44.4233L48.949 50.861C48.8085 51.3494 48.427 51.7309 47.9386 51.8744L41.507 53.77C40.0785 54.1912 40.0815 56.215 41.5131 56.6301L47.9508 58.4983C48.4392 58.6387 48.8207 59.0202 48.9642 59.5086L50.8598 65.9402C51.2811 67.3688 53.3048 67.3657 53.72 65.9341L55.5881 59.4964C55.7285 59.008 56.1101 58.6265 56.5985 58.483L63.03 56.5874C64.4586 56.1662 64.4555 54.1424 63.0239 53.7272L56.5863 51.8591C56.0979 51.7187 55.7163 51.3371 55.5728 50.8487L53.6772 44.4172Z" fill="white"/>
<path d="M63.1991 34.8607C62.9702 34.0824 61.8652 34.0824 61.6393 34.8638L60.6198 38.3742C60.5434 38.6397 60.3359 38.8503 60.0673 38.9267L56.56 39.9614C55.7816 40.1904 55.7816 41.2954 56.563 41.5213L60.0734 42.5408C60.3389 42.6171 60.5496 42.8247 60.6259 43.0933L61.6607 46.6006C61.8896 47.379 62.9946 47.379 63.2205 46.5975L64.24 43.0872C64.3163 42.8216 64.5239 42.611 64.7925 42.5347L68.2998 41.4999C69.0782 41.271 69.0782 40.166 68.2968 39.9401L64.7864 38.9205C64.5208 38.8442 64.3102 38.6367 64.2339 38.368L63.1991 34.8607Z" fill="white"/>
<path d="M77.237 57.4217C78.1405 57.7972 78.7114 58.7557 78.4641 59.6989L70.4208 90.2878C70.2072 91.0967 69.4593 91.6492 68.629 91.5759C60.3293 90.8464 52.6066 87.0704 46.9381 81.0967C46.2879 80.4099 46.3459 79.3324 47.0327 78.6822L71.4739 55.5536C72.1852 54.8821 73.2993 54.9217 74.0594 55.5353C75.024 56.3106 76.0954 56.9455 77.237 57.4187V57.4217Z" fill="white"/>
<path d="M101.648 71.4299C102.039 71.9549 102.112 72.657 101.813 73.24C98.8003 79.1099 94.0964 84.0916 88.1471 87.4035C87.0727 88.0018 85.7845 87.257 85.6807 86.0299L83.4829 60.1357C83.4005 59.162 84.127 58.3164 85.0824 58.1028C85.2564 58.0631 85.4335 58.0203 85.6075 57.9746C86.6514 57.6937 87.6313 57.2969 88.5378 56.7963C89.3956 56.3232 90.5006 56.4727 91.0867 57.2572L101.648 71.4299Z" fill="white"/>
<path d="M104.398 48.9554C105.198 51.9407 105.574 54.9413 105.564 57.89C105.558 59.2331 104.066 59.9535 102.948 59.2087L94.5481 53.6013C93.7331 53.0579 93.5285 51.9621 93.9559 51.083C94.4931 49.978 94.8777 48.7936 95.0884 47.5696C95.2532 46.605 96.059 45.8327 97.0389 45.8663L102.295 46.0372C103.019 46.0616 103.66 46.5195 103.883 47.2094C104.069 47.7832 104.243 48.3663 104.398 48.9554Z" fill="white"/>
<path d="M99.7192 33.1094H96.4806C95.7754 33.1094 95.2107 33.6955 95.2351 34.4006L95.4488 40.1514C95.4732 40.8199 96.0227 41.3511 96.6942 41.3511H101.212C102.027 41.3511 102.622 40.5818 102.418 39.7943L100.928 34.0434C100.785 33.494 100.29 33.1094 99.7223 33.1094H99.7192Z" fill="white"/>
<path d="M131.564 45.3457V79.3457" stroke="white" stroke-width="2" stroke-linecap="round"/>
<path d="M165.992 72.3457L157.424 52.7457H161.372L169.016 70.4697H166.748L174.476 52.7457H178.116L169.576 72.3457H165.992ZM185.756 72.5417C184.094 72.5417 182.638 72.215 181.388 71.5617C180.156 70.8897 179.194 69.975 178.504 68.8177C177.832 67.6604 177.496 66.3444 177.496 64.8697C177.496 63.3764 177.822 62.0604 178.476 60.9217C179.148 59.7644 180.062 58.859 181.22 58.2057C182.396 57.5524 183.73 57.2257 185.224 57.2257C186.68 57.2257 187.977 57.543 189.116 58.1777C190.254 58.8124 191.15 59.7084 191.804 60.8657C192.457 62.023 192.784 63.3857 192.784 64.9537C192.784 65.103 192.774 65.271 192.756 65.4577C192.756 65.6444 192.746 65.8217 192.728 65.9897H180.268V63.6657H190.88L189.508 64.3937C189.526 63.535 189.349 62.779 188.976 62.1257C188.602 61.4724 188.089 60.959 187.436 60.5857C186.801 60.2124 186.064 60.0257 185.224 60.0257C184.365 60.0257 183.609 60.2124 182.956 60.5857C182.321 60.959 181.817 61.4817 181.444 62.1537C181.089 62.807 180.912 63.5817 180.912 64.4777V65.0377C180.912 65.9337 181.117 66.727 181.528 67.4177C181.938 68.1084 182.517 68.6404 183.264 69.0137C184.01 69.387 184.869 69.5737 185.84 69.5737C186.68 69.5737 187.436 69.443 188.108 69.1817C188.78 68.9204 189.377 68.5097 189.9 67.9497L191.776 70.1057C191.104 70.8897 190.254 71.4964 189.228 71.9257C188.22 72.3364 187.062 72.5417 185.756 72.5417ZM204.63 57.2257C205.824 57.2257 206.888 57.459 207.822 57.9257C208.774 58.3924 209.52 59.111 210.062 60.0817C210.603 61.0337 210.874 62.2657 210.874 63.7777V72.3457H207.374V64.2257C207.374 62.9004 207.056 61.911 206.422 61.2577C205.806 60.6044 204.938 60.2777 203.818 60.2777C202.996 60.2777 202.268 60.4457 201.634 60.7817C200.999 61.1177 200.504 61.6217 200.15 62.2937C199.814 62.947 199.646 63.7777 199.646 64.7857V72.3457H196.146V57.3937H199.478V61.4257L198.89 60.1937C199.412 59.2417 200.168 58.5137 201.158 58.0097C202.166 57.487 203.323 57.2257 204.63 57.2257ZM221.669 72.5417C220.232 72.5417 218.934 72.2244 217.777 71.5897C216.638 70.9364 215.742 70.0404 215.089 68.9017C214.436 67.763 214.109 66.419 214.109 64.8697C214.109 63.3204 214.436 61.9764 215.089 60.8377C215.742 59.699 216.638 58.8124 217.777 58.1777C218.934 57.543 220.232 57.2257 221.669 57.2257C222.92 57.2257 224.04 57.5057 225.029 58.0657C226.018 58.607 226.802 59.4377 227.381 60.5577C227.96 61.6777 228.249 63.115 228.249 64.8697C228.249 66.6057 227.969 68.043 227.409 69.1817C226.849 70.3017 226.074 71.1417 225.085 71.7017C224.096 72.2617 222.957 72.5417 221.669 72.5417ZM222.089 69.5457C222.929 69.5457 223.676 69.359 224.329 68.9857C225.001 68.6124 225.533 68.071 225.925 67.3617C226.336 66.6524 226.541 65.8217 226.541 64.8697C226.541 63.899 226.336 63.0684 225.925 62.3777C225.533 61.6684 225.001 61.127 224.329 60.7537C223.676 60.3804 222.929 60.1937 222.089 60.1937C221.249 60.1937 220.493 60.3804 219.821 60.7537C219.168 61.127 218.636 61.6684 218.225 62.3777C217.833 63.0684 217.637 63.899 217.637 64.8697C217.637 65.8217 217.833 66.6524 218.225 67.3617C218.636 68.071 219.168 68.6124 219.821 68.9857C220.493 69.359 221.249 69.5457 222.089 69.5457ZM226.625 72.3457V68.8177L226.765 64.8417L226.485 60.8657V51.5697H229.957V72.3457H226.625ZM241.284 72.5417C239.753 72.5417 238.39 72.215 237.196 71.5617C236.001 70.8897 235.058 69.975 234.368 68.8177C233.677 67.6604 233.332 66.3444 233.332 64.8697C233.332 63.3764 233.677 62.0604 234.368 60.9217C235.058 59.7644 236.001 58.859 237.196 58.2057C238.39 57.5524 239.753 57.2257 241.284 57.2257C242.833 57.2257 244.205 57.5524 245.4 58.2057C246.613 58.859 247.556 59.755 248.228 60.8937C248.918 62.0324 249.264 63.3577 249.264 64.8697C249.264 66.3444 248.918 67.6604 248.228 68.8177C247.556 69.975 246.613 70.8897 245.4 71.5617C244.205 72.215 242.833 72.5417 241.284 72.5417ZM241.284 69.5457C242.142 69.5457 242.908 69.359 243.58 68.9857C244.252 68.6124 244.774 68.071 245.148 67.3617C245.54 66.6524 245.736 65.8217 245.736 64.8697C245.736 63.899 245.54 63.0684 245.148 62.3777C244.774 61.6684 244.252 61.127 243.58 60.7537C242.908 60.3804 242.152 60.1937 241.312 60.1937C240.453 60.1937 239.688 60.3804 239.016 60.7537C238.362 61.127 237.84 61.6684 237.448 62.3777C237.056 63.0684 236.86 63.899 236.86 64.8697C236.86 65.8217 237.056 66.6524 237.448 67.3617C237.84 68.071 238.362 68.6124 239.016 68.9857C239.688 69.359 240.444 69.5457 241.284 69.5457ZM252.61 72.3457V57.3937H255.942V61.5097L255.55 60.3057C255.998 59.2977 256.698 58.5324 257.65 58.0097C258.621 57.487 259.825 57.2257 261.262 57.2257V60.5577C261.113 60.5204 260.973 60.5017 260.842 60.5017C260.712 60.483 260.581 60.4737 260.45 60.4737C259.125 60.4737 258.07 60.8657 257.286 61.6497C256.502 62.415 256.11 63.563 256.11 65.0937V72.3457H252.61ZM268.988 72.5417C267.738 72.5417 266.534 72.383 265.376 72.0657C264.238 71.7297 263.332 71.3284 262.66 70.8617L264.004 68.2017C264.676 68.631 265.479 68.9857 266.412 69.2657C267.346 69.5457 268.279 69.6857 269.212 69.6857C270.314 69.6857 271.107 69.5364 271.592 69.2377C272.096 68.939 272.348 68.5377 272.348 68.0337C272.348 67.623 272.18 67.315 271.844 67.1097C271.508 66.8857 271.07 66.7177 270.528 66.6057C269.987 66.4937 269.38 66.391 268.708 66.2977C268.055 66.2044 267.392 66.083 266.72 65.9337C266.067 65.7657 265.47 65.5324 264.928 65.2337C264.387 64.9164 263.948 64.4964 263.612 63.9737C263.276 63.451 263.108 62.7604 263.108 61.9017C263.108 60.9497 263.379 60.1284 263.92 59.4377C264.462 58.7284 265.218 58.187 266.188 57.8137C267.178 57.4217 268.344 57.2257 269.688 57.2257C270.696 57.2257 271.714 57.3377 272.74 57.5617C273.767 57.7857 274.616 58.103 275.288 58.5137L273.944 61.1737C273.235 60.7444 272.516 60.455 271.788 60.3057C271.079 60.1377 270.37 60.0537 269.66 60.0537C268.596 60.0537 267.803 60.2124 267.28 60.5297C266.776 60.847 266.524 61.2484 266.524 61.7337C266.524 62.1817 266.692 62.5177 267.028 62.7417C267.364 62.9657 267.803 63.143 268.344 63.2737C268.886 63.4044 269.483 63.5164 270.136 63.6097C270.808 63.6844 271.471 63.8057 272.124 63.9737C272.778 64.1417 273.375 64.375 273.916 64.6737C274.476 64.9537 274.924 65.355 275.26 65.8777C275.596 66.4004 275.764 67.0817 275.764 67.9217C275.764 68.855 275.484 69.667 274.924 70.3577C274.383 71.0484 273.608 71.5897 272.6 71.9817C271.592 72.355 270.388 72.5417 268.988 72.5417Z" fill="white"/>
</svg>
