<svg width="42" height="42" viewBox="0 0 42 42" fill="none" xmlns="http://www.w3.org/2000/svg">
<rect width="42" height="42" fill="white" fill-opacity="0.05"/>
<path d="M31 14H11C10.7348 14 10.4804 13.8946 10.2929 13.7071C10.1054 13.5196 10 13.2652 10 13C10 12.7348 10.1054 12.4804 10.2929 12.2929C10.4804 12.1054 10.7348 12 11 12H28C28.2652 12 28.5196 11.8946 28.7071 11.7071C28.8946 11.5196 29 11.2652 29 11C29 10.7348 28.8946 10.4804 28.7071 10.2929C28.5196 10.1054 28.2652 10 28 10H11C10.2044 10 9.44129 10.3161 8.87868 10.8787C8.31607 11.4413 8 12.2044 8 13V29C8 29.7956 8.31607 30.5587 8.87868 31.1213C9.44129 31.6839 10.2044 32 11 32H31C31.5304 32 32.0391 31.7893 32.4142 31.4142C32.7893 31.0391 33 30.5304 33 30V16C33 15.4696 32.7893 14.9609 32.4142 14.5858C32.0391 14.2107 31.5304 14 31 14ZM31 30H11C10.7348 30 10.4804 29.8946 10.2929 29.7071C10.1054 29.5196 10 29.2652 10 29V15.8287C10.3211 15.9426 10.6593 16.0005 11 16H31V30ZM25 22.5C25 22.2033 25.088 21.9133 25.2528 21.6666C25.4176 21.42 25.6519 21.2277 25.926 21.1142C26.2001 21.0006 26.5017 20.9709 26.7926 21.0288C27.0836 21.0867 27.3509 21.2296 27.5607 21.4393C27.7704 21.6491 27.9133 21.9164 27.9712 22.2074C28.0291 22.4983 27.9993 22.7999 27.8858 23.074C27.7723 23.3481 27.58 23.5824 27.3334 23.7472C27.0867 23.912 26.7967 24 26.5 24C26.1022 24 25.7206 23.842 25.4393 23.5607C25.158 23.2794 25 22.8978 25 22.5Z" fill="#C7A77B"/>
</svg>
