<svg width="42" height="42" viewBox="0 0 42 42" fill="none" xmlns="http://www.w3.org/2000/svg">
<rect width="42" height="42" fill="white" fill-opacity="0.05"/>
<path d="M31 11H11.75C11.2859 11 10.8408 11.1844 10.5126 11.5126C10.1844 11.8408 10 12.2859 10 12.75V28.5C10 28.9641 10.1844 29.4092 10.5126 29.7374C10.8408 30.0656 11.2859 30.25 11.75 30.25H31C31.4641 30.25 31.9092 30.0656 32.2374 29.7374C32.5656 29.4092 32.75 28.9641 32.75 28.5V12.75C32.75 12.2859 32.5656 11.8408 32.2374 11.5126C31.9092 11.1844 31.4641 11 31 11ZM31 12.75V14.5H11.75V12.75H31ZM31 28.5H11.75V16.25H31V28.5ZM26.625 18.875C26.625 20.2674 26.0719 21.6027 25.0873 22.5873C24.1027 23.5719 22.7674 24.125 21.375 24.125C19.9826 24.125 18.6473 23.5719 17.6627 22.5873C16.6781 21.6027 16.125 20.2674 16.125 18.875C16.125 18.6429 16.2172 18.4204 16.3813 18.2563C16.5454 18.0922 16.7679 18 17 18C17.2321 18 17.4546 18.0922 17.6187 18.2563C17.7828 18.4204 17.875 18.6429 17.875 18.875C17.875 19.8033 18.2437 20.6935 18.9001 21.3499C19.5565 22.0063 20.4467 22.375 21.375 22.375C22.3033 22.375 23.1935 22.0063 23.8499 21.3499C24.5063 20.6935 24.875 19.8033 24.875 18.875C24.875 18.6429 24.9672 18.4204 25.1313 18.2563C25.2954 18.0922 25.5179 18 25.75 18C25.9821 18 26.2046 18.0922 26.3687 18.2563C26.5328 18.4204 26.625 18.6429 26.625 18.875Z" fill="#C7A77B"/>
</svg>
