<svg width="42" height="42" viewBox="0 0 42 42" fill="none" xmlns="http://www.w3.org/2000/svg">
<rect width="42" height="42" fill="white" fill-opacity="0.05"/>
<path d="M28 10H14C12.1441 10.002 10.3648 10.7401 9.05245 12.0524C7.74012 13.3648 7.00199 15.1441 7 17V29C7 29.5304 7.21071 30.0391 7.58579 30.4142C7.96086 30.7893 8.46957 31 9 31H33C33.5304 31 34.0391 30.7893 34.4142 30.4142C34.7893 30.0391 35 29.5304 35 29V17C34.998 15.1441 34.2599 13.3648 32.9476 12.0524C31.6352 10.7401 29.8559 10.002 28 10ZM33 17V18H29V12.1C30.1286 12.3321 31.1427 12.9461 31.8713 13.8387C32.6 14.7313 32.9986 15.8478 33 17ZM22 22H20V18H22V22ZM19 24H23C23.2652 24 23.5196 23.8946 23.7071 23.7071C23.8946 23.5196 24 23.2652 24 23V20H27V29H15V20H18V23C18 23.2652 18.1054 23.5196 18.2929 23.7071C18.4804 23.8946 18.7348 24 19 24ZM24 18V17C24 16.7348 23.8946 16.4804 23.7071 16.2929C23.5196 16.1054 23.2652 16 23 16H19C18.7348 16 18.4804 16.1054 18.2929 16.2929C18.1054 16.4804 18 16.7348 18 17V18H15V12H27V18H24ZM13 12.1V18H9V17C9.00141 15.8478 9.40003 14.7313 10.1287 13.8387C10.8573 12.9461 11.8714 12.3321 13 12.1ZM9 20H13V29H9V20ZM33 29H29V20H33V29Z" fill="#C7A77B"/>
</svg>
