<svg width="42" height="42" viewBox="0 0 42 42" fill="none" xmlns="http://www.w3.org/2000/svg">
<rect width="42" height="42" fill="white" fill-opacity="0.05"/>
<path d="M32.4792 20.5557L21.4446 9.52113C21.2801 9.35532 21.0843 9.22387 20.8686 9.13441C20.6528 9.04495 20.4215 8.99926 20.1879 9.00001H9.88891C9.65316 9.00001 9.42706 9.09366 9.26036 9.26036C9.09366 9.42706 9.00001 9.65316 9.00001 9.88891V20.1879C8.99926 20.4215 9.04495 20.6528 9.13441 20.8686C9.22387 21.0843 9.35532 21.2801 9.52113 21.4446L20.5557 32.4792C20.7208 32.6443 20.9168 32.7753 21.1325 32.8646C21.3482 32.954 21.5794 33 21.8129 33C22.0464 33 22.2776 32.954 22.4934 32.8646C22.7091 32.7753 22.9051 32.6443 23.0702 32.4792L32.4792 23.0702C32.6443 22.9051 32.7753 22.7091 32.8646 22.4934C32.954 22.2776 33 22.0464 33 21.8129C33 21.5794 32.954 21.3482 32.8646 21.1325C32.7753 20.9168 32.6443 20.7208 32.4792 20.5557ZM21.8124 31.2225L10.7778 20.1879V10.7778H20.1879L31.2225 21.8124L21.8124 31.2225ZM16.1112 14.7778C16.1112 15.0416 16.033 15.2993 15.8865 15.5186C15.74 15.7379 15.5317 15.9088 15.2881 16.0097C15.0445 16.1106 14.7764 16.137 14.5177 16.0856C14.2591 16.0341 14.0215 15.9071 13.835 15.7207C13.6486 15.5342 13.5216 15.2966 13.4701 15.038C13.4187 14.7793 13.4451 14.5112 13.546 14.2676C13.6469 14.024 13.8178 13.8157 14.0371 13.6692C14.2563 13.5227 14.5141 13.4445 14.7778 13.4445C15.1315 13.4445 15.4706 13.585 15.7207 13.835C15.9707 14.0851 16.1112 14.4242 16.1112 14.7778Z" fill="#C7A77B"/>
</svg>
