<svg width="42" height="42" viewBox="0 0 42 42" fill="none" xmlns="http://www.w3.org/2000/svg">
<rect width="42" height="42" fill="white" fill-opacity="0.05"/>
<path d="M33.8388 13.3169C33.7128 13.2383 33.5689 13.193 33.4206 13.1854C33.2723 13.1777 33.1245 13.2079 32.9911 13.2732C28.2956 15.57 24.9422 14.4938 21.3973 13.3585C17.6786 12.1674 13.8231 10.9369 8.49656 13.5378C8.34774 13.6092 8.22214 13.7213 8.13427 13.861C8.04641 14.0007 7.99986 14.1625 8 14.3275V27.4449C7.99998 27.5933 8.03773 27.7394 8.10971 27.8692C8.18168 27.9991 8.28551 28.1085 8.41143 28.1871C8.53734 28.2658 8.68119 28.3111 8.82945 28.3188C8.97771 28.3265 9.1255 28.2964 9.25891 28.2313C13.9544 25.9344 17.3078 27.0107 20.8581 28.146C22.9625 28.8186 25.1062 29.5044 27.53 29.5044C29.3992 29.5044 31.438 29.0975 33.7545 27.9666C33.9017 27.8948 34.0257 27.7831 34.1125 27.6442C34.1993 27.5054 34.2454 27.345 34.2456 27.1813V14.0639C34.2469 13.9151 34.2103 13.7684 34.1391 13.6377C34.0679 13.5069 33.9645 13.3965 33.8388 13.3169ZM32.5 26.6246C28.0594 28.6119 24.8164 27.575 21.3919 26.4802C19.2875 25.8075 17.1438 25.1218 14.72 25.1218C13.0171 25.13 11.3316 25.4642 9.75438 26.1061V14.8843C14.195 12.8969 17.438 13.9338 20.8625 15.0286C24.287 16.1235 27.8122 17.2544 32.5 15.4049V26.6246ZM21.125 17.2544C20.4328 17.2544 19.7561 17.4597 19.1805 17.8443C18.6049 18.2288 18.1563 18.7755 17.8914 19.415C17.6265 20.0546 17.5572 20.7583 17.6923 21.4372C17.8273 22.1162 18.1606 22.7398 18.6501 23.2293C19.1396 23.7188 19.7633 24.0521 20.4422 24.1872C21.1211 24.3222 21.8249 24.2529 22.4644 23.988C23.1039 23.7231 23.6506 23.2745 24.0351 22.6989C24.4197 22.1233 24.625 21.4466 24.625 20.7544C24.625 19.8261 24.2563 18.9359 23.5999 18.2795C22.9435 17.6232 22.0533 17.2544 21.125 17.2544ZM21.125 22.5044C20.7789 22.5044 20.4405 22.4018 20.1528 22.2095C19.865 22.0172 19.6407 21.7439 19.5082 21.4241C19.3758 21.1043 19.3411 20.7525 19.4086 20.413C19.4761 20.0735 19.6428 19.7617 19.8876 19.517C20.1323 19.2722 20.4441 19.1056 20.7836 19.038C21.1231 18.9705 21.4749 19.0052 21.7947 19.1376C22.1145 19.2701 22.3878 19.4944 22.5801 19.7822C22.7724 20.0699 22.875 20.4083 22.875 20.7544C22.875 21.2185 22.6906 21.6637 22.3624 21.9918C22.0342 22.32 21.5891 22.5044 21.125 22.5044ZM13.25 17.2544V22.5044C13.25 22.7365 13.1578 22.959 12.9937 23.1231C12.8296 23.2872 12.6071 23.3794 12.375 23.3794C12.1429 23.3794 11.9204 23.2872 11.7563 23.1231C11.5922 22.959 11.5 22.7365 11.5 22.5044V17.2544C11.5 17.0223 11.5922 16.7998 11.7563 16.6357C11.9204 16.4716 12.1429 16.3794 12.375 16.3794C12.6071 16.3794 12.8296 16.4716 12.9937 16.6357C13.1578 16.7998 13.25 17.0223 13.25 17.2544ZM29 24.2544V19.0044C29 18.7723 29.0922 18.5498 29.2563 18.3857C29.4204 18.2216 29.6429 18.1294 29.875 18.1294C30.1071 18.1294 30.3296 18.2216 30.4937 18.3857C30.6578 18.5498 30.75 18.7723 30.75 19.0044V24.2544C30.75 24.4865 30.6578 24.709 30.4937 24.8731C30.3296 25.0372 30.1071 25.1294 29.875 25.1294C29.6429 25.1294 29.4204 25.0372 29.2563 24.8731C29.0922 24.709 29 24.4865 29 24.2544Z" fill="#C7A77B"/>
</svg>
