<svg width="42" height="42" viewBox="0 0 42 42" fill="none" xmlns="http://www.w3.org/2000/svg">
<rect width="42" height="42" fill="white" fill-opacity="0.05"/>
<path d="M31.7075 15.2925L24.7075 8.2925C24.6146 8.19967 24.5042 8.12605 24.3829 8.07586C24.2615 8.02568 24.1314 7.9999 24 8H12C11.4696 8 10.9609 8.21071 10.5858 8.58579C10.2107 8.96086 10 9.46957 10 10V32C10 32.5304 10.2107 33.0391 10.5858 33.4142C10.9609 33.7893 11.4696 34 12 34H30C30.5304 34 31.0391 33.7893 31.4142 33.4142C31.7893 33.0391 32 32.5304 32 32V16C32.0001 15.8686 31.9743 15.7385 31.9241 15.6172C31.8739 15.4958 31.8003 15.3854 31.7075 15.2925ZM25 11.4138L28.5863 15H25V11.4138ZM30 32H12V10H23V16C23 16.2652 23.1054 16.5196 23.2929 16.7071C23.4804 16.8946 23.7348 17 24 17H30V32ZM25 24C25 24.2652 24.8946 24.5196 24.7071 24.7071C24.5196 24.8946 24.2652 25 24 25H18C17.7348 25 17.4804 24.8946 17.2929 24.7071C17.1054 24.5196 17 24.2652 17 24C17 23.7348 17.1054 23.4804 17.2929 23.2929C17.4804 23.1054 17.7348 23 18 23H24C24.2652 23 24.5196 23.1054 24.7071 23.2929C24.8946 23.4804 25 23.7348 25 24Z" fill="#C7A77B"/>
</svg>
