<svg width="118" height="118" viewBox="0 0 118 118" fill="none" xmlns="http://www.w3.org/2000/svg">
<g clip-path="url(#clip0_7413_11292)">
<path d="M104.107 47.3936C102.37 45.5775 100.572 43.7061 99.8944 42.0605C99.2675 40.5533 99.2306 38.055 99.1937 35.6351C99.1246 31.1363 99.0509 26.0384 95.5062 22.4937C91.9616 18.9491 86.8637 18.8754 82.3649 18.8062C79.945 18.7694 77.4467 18.7325 75.9395 18.1056C74.2985 17.428 72.4225 15.6304 70.6064 13.8927C67.4259 10.8366 63.8122 7.375 59 7.375C54.1878 7.375 50.5787 10.8366 47.3936 13.8927C45.5775 15.6304 43.7061 17.428 42.0605 18.1056C40.5625 18.7325 38.055 18.7694 35.6351 18.8062C31.1363 18.8754 26.0384 18.9491 22.4937 22.4937C18.9491 26.0384 18.8984 31.1363 18.8062 35.6351C18.7694 38.055 18.7325 40.5533 18.1056 42.0605C17.428 43.7015 15.6304 45.5775 13.8927 47.3936C10.8366 50.5741 7.375 54.1878 7.375 59C7.375 63.8122 10.8366 67.4213 13.8927 70.6064C15.6304 72.4225 17.428 74.2939 18.1056 75.9395C18.7325 77.4467 18.7694 79.945 18.8062 82.3649C18.8754 86.8637 18.9491 91.9616 22.4937 95.5062C26.0384 99.0509 31.1363 99.1246 35.6351 99.1937C38.055 99.2306 40.5533 99.2675 42.0605 99.8944C43.7015 100.572 45.5775 102.37 47.3936 104.107C50.5741 107.163 54.1878 110.625 59 110.625C63.8122 110.625 67.4213 107.163 70.6064 104.107C72.4225 102.37 74.2939 100.572 75.9395 99.8944C77.4467 99.2675 79.945 99.2306 82.3649 99.1937C86.8637 99.1246 91.9616 99.0509 95.5062 95.5062C99.0509 91.9616 99.1246 86.8637 99.1937 82.3649C99.2306 79.945 99.2675 77.4467 99.8944 75.9395C100.572 74.2985 102.37 72.4225 104.107 70.6064C107.163 67.4259 110.625 63.8122 110.625 59C110.625 54.1878 107.163 50.5787 104.107 47.3936ZM55.3125 36.875C55.3125 35.897 55.701 34.9591 56.3925 34.2675C57.0841 33.576 58.022 33.1875 59 33.1875C59.978 33.1875 60.9159 33.576 61.6075 34.2675C62.299 34.9591 62.6875 35.897 62.6875 36.875V62.6875C62.6875 63.6655 62.299 64.6034 61.6075 65.295C60.9159 65.9865 59.978 66.375 59 66.375C58.022 66.375 57.0841 65.9865 56.3925 65.295C55.701 64.6034 55.3125 63.6655 55.3125 62.6875V36.875ZM59 84.8125C57.906 84.8125 56.8366 84.4881 55.927 83.8803C55.0174 83.2725 54.3084 82.4087 53.8898 81.398C53.4711 80.3873 53.3616 79.2751 53.575 78.2022C53.7885 77.1292 54.3153 76.1436 55.0888 75.3701C55.8624 74.5965 56.8479 74.0697 57.9209 73.8563C58.9939 73.6429 60.106 73.7524 61.1167 74.171C62.1274 74.5897 62.9913 75.2986 63.5991 76.2083C64.2068 77.1179 64.5312 78.1873 64.5312 79.2812C64.5312 80.7482 63.9485 82.1551 62.9112 83.1924C61.8739 84.2297 60.467 84.8125 59 84.8125Z" fill="#F04438"/>
</g>
<defs>
<clipPath id="clip0_7413_11292">
<rect width="118" height="118" fill="white"/>
</clipPath>
</defs>
</svg>
