<svg width="118" height="118" viewBox="0 0 118 118" fill="none" xmlns="http://www.w3.org/2000/svg">
<path d="M104.107 47.3936C102.37 45.5775 100.572 43.7061 99.8944 42.0605C99.2675 40.5533 99.2306 38.055 99.1937 35.6351C99.1246 31.1363 99.0509 26.0384 95.5062 22.4937C91.9616 18.9491 86.8637 18.8754 82.3649 18.8062C79.945 18.7694 77.4467 18.7325 75.9395 18.1056C74.2985 17.428 72.4225 15.6304 70.6064 13.8927C67.4259 10.8366 63.8122 7.375 59 7.375C54.1878 7.375 50.5787 10.8366 47.3936 13.8927C45.5775 15.6304 43.7061 17.428 42.0605 18.1056C40.5625 18.7325 38.055 18.7694 35.6351 18.8062C31.1363 18.8754 26.0384 18.9491 22.4937 22.4937C18.9491 26.0384 18.8984 31.1363 18.8062 35.6351C18.7694 38.055 18.7325 40.5533 18.1056 42.0605C17.428 43.7015 15.6304 45.5775 13.8927 47.3936C10.8366 50.5741 7.375 54.1878 7.375 59C7.375 63.8122 10.8366 67.4213 13.8927 70.6064C15.6304 72.4225 17.428 74.2939 18.1056 75.9395C18.7325 77.4467 18.7694 79.945 18.8062 82.3649C18.8754 86.8637 18.9491 91.9616 22.4937 95.5062C26.0384 99.0509 31.1363 99.1246 35.6351 99.1937C38.055 99.2306 40.5533 99.2675 42.0605 99.8944C43.7015 100.572 45.5775 102.37 47.3936 104.107C50.5741 107.163 54.1878 110.625 59 110.625C63.8122 110.625 67.4213 107.163 70.6064 104.107C72.4225 102.37 74.2939 100.572 75.9395 99.8944C77.4467 99.2675 79.945 99.2306 82.3649 99.1937C86.8637 99.1246 91.9616 99.0509 95.5062 95.5062C99.0509 91.9616 99.1246 86.8637 99.1937 82.3649C99.2306 79.945 99.2675 77.4467 99.8944 75.9395C100.572 74.2985 102.37 72.4225 104.107 70.6064C107.163 67.4259 110.625 63.8122 110.625 59C110.625 54.1878 107.163 50.5787 104.107 47.3936ZM80.0464 50.5464L54.2339 76.3589C53.8914 76.7018 53.4847 76.9737 53.0371 77.1593C52.5894 77.3449 52.1096 77.4404 51.625 77.4404C51.1404 77.4404 50.6606 77.3449 50.2129 77.1593C49.7653 76.9737 49.3586 76.7018 49.0161 76.3589L37.9536 65.2964C37.2617 64.6045 36.8729 63.666 36.8729 62.6875C36.8729 61.709 37.2617 60.7705 37.9536 60.0786C38.6455 59.3867 39.584 58.9979 40.5625 58.9979C41.541 58.9979 42.4795 59.3867 43.1714 60.0786L51.625 68.5368L74.8286 45.3286C75.1712 44.986 75.5779 44.7142 76.0256 44.5288C76.4732 44.3434 76.953 44.2479 77.4375 44.2479C77.922 44.2479 78.4018 44.3434 78.8494 44.5288C79.2971 44.7142 79.7038 44.986 80.0464 45.3286C80.389 45.6712 80.6608 46.0779 80.8462 46.5256C81.0316 46.9732 81.1271 47.453 81.1271 47.9375C81.1271 48.422 81.0316 48.9018 80.8462 49.3494C80.6608 49.7971 80.389 50.2038 80.0464 50.5464Z" fill="#12B76A"/>
</svg>
